<?xml version="1.0" encoding="UTF-8" standalone="no"?>
<svg
   id="arrow-circle-down"
   viewBox="0 0 24.931509 24.935926"
   width="531.87219"
   height="531.96643"
   version="1.1"
   sodipodi:docname="move.svg"
   inkscape:version="1.3.2 (091e20ef0f, 2023-11-25)"
   xmlns:inkscape="http://www.inkscape.org/namespaces/inkscape"
   xmlns:sodipodi="http://sodipodi.sourceforge.net/DTD/sodipodi-0.dtd"
   xmlns="http://www.w3.org/2000/svg"
   xmlns:svg="http://www.w3.org/2000/svg">
  <defs
     id="defs1" />
  <sodipodi:namedview
     id="namedview1"
     pagecolor="#505050"
     bordercolor="#eeeeee"
     borderopacity="1"
     inkscape:showpageshadow="0"
     inkscape:pageopacity="0"
     inkscape:pagecheckerboard="0"
     inkscape:deskcolor="#505050"
     inkscape:zoom="1.1503906"
     inkscape:cx="266.43124"
     inkscape:cy="266.43124"
     inkscape:window-width="1536"
     inkscape:window-height="795"
     inkscape:window-x="0"
     inkscape:window-y="0"
     inkscape:window-maximized="1"
     inkscape:current-layer="arrow-circle-down" />
  <path
     d="m 23.819865,10.721877 c -0.233,-0.263 -0.462,-0.513 -0.619,-0.67 l -2.245,-2.2830004 a 1,1 0 0 0 -1.426,1.4 l 2.251,2.2900004 0.008,0.01 h -8.32 V 3.2138766 l 2.233,2.194 a 1,1 0 0 0 1.4,-1.426 l -2.279,-2.24 c -0.163,-0.163 -0.413,-0.391 -0.674,-0.623 a 2.575,2.575 0 0 0 -1.652,-0.64400004 0.28,0.28 0 0 0 -0.028,-0.006 h -0.011 a 2.584,2.584 0 0 0 -1.736,0.64700004 c -0.263,0.233 -0.513,0.462 -0.67,0.619 l -2.2830002,2.247 a 1,1 0 1 0 1.4,1.426 l 2.2900002,-2.251 0.01,-0.008 V 11.468877 H 3.1488648 l 0.015,-0.015 2.244,-2.2850004 a 1,1 0 1 0 -1.426,-1.4 l -2.239,2.2770004 c -0.163,0.163 -0.392,0.413 -0.6240001,0.675 a 2.581,2.581 0 0 0 -0.64999998,1.737 v 0.011 c 0,0.01 0.005,0.019 0.006,0.029 a 2.573,2.573 0 0 0 0.64399998,1.653 c 0.2330001,0.262 0.4610001,0.512 0.6180001,0.67 l 2.245,2.284 a 1,1 0 0 0 1.426,-1.4 l -2.195,-2.236 h 8.2560002 v 8.32 l -0.015,-0.014 -2.2850002,-2.244 a 1,1 0 1 0 -1.4,1.425 l 2.2780002,2.239 c 0.163,0.163 0.413,0.391 0.675,0.624 a 2.587,2.587 0 0 0 3.43,0 c 0.262,-0.233 0.511,-0.46 0.669,-0.619 l 2.284,-2.244 a 1,1 0 1 0 -1.4,-1.425 l -2.236,2.194 v -8.256 h 8.256 l -2.2,2.233 a 1,1 0 1 0 1.426,1.4 l 2.239,-2.279 c 0.163,-0.163 0.391,-0.413 0.624,-0.675 a 2.589,2.589 0 0 0 0.006,-3.426 z"
     id="path1"
     style="fill:#ffffff;stroke:#000000;stroke-width:0.9375;stroke-linecap:butt;stroke-linejoin:miter;stroke-dasharray:none;stroke-opacity:1" />
</svg>
